# Blender v2.91.0 OBJ File: 'untitled.blend'
# www.blender.org
mtllib bannerPillars.mtl
o Cylinder
v 0.000000 2.273975 45.384666
v 0.000000 7.929737 45.384666
v 0.044823 2.273975 45.388802
v 0.044823 7.929737 45.388802
v 0.087923 2.273975 45.401054
v 0.087923 7.929737 45.401054
v 0.127644 2.273975 45.420948
v 0.127644 7.929737 45.420948
v 0.162460 2.273975 45.447720
v 0.162460 7.929737 45.447720
v 0.191033 2.273975 45.480343
v 0.191033 7.929737 45.480343
v 0.212265 2.273975 45.517563
v 0.212265 7.929737 45.517563
v 0.225339 2.273975 45.557949
v 0.225339 7.929737 45.557949
v 0.229754 2.273975 45.599949
v 0.229754 7.929737 45.599949
v 0.225339 2.273975 45.641949
v 0.225339 7.929737 45.641949
v 0.212265 2.273975 45.682335
v 0.212265 7.929737 45.682335
v 0.191033 2.273975 45.719555
v 0.191033 7.929737 45.719555
v 0.162460 2.273975 45.752178
v 0.162460 7.929737 45.752178
v 0.127644 2.273975 45.778950
v 0.127644 7.929737 45.778950
v 0.087923 2.273975 45.798843
v 0.087923 7.929737 45.798843
v 0.044823 2.273975 45.811096
v 0.044823 7.929737 45.811096
v -0.000000 2.273975 45.815231
v -0.000000 7.929737 45.815231
v -0.044823 2.273975 45.811096
v -0.044823 7.929737 45.811096
v -0.087923 2.273975 45.798843
v -0.087923 7.929737 45.798843
v -0.127644 2.273975 45.778950
v -0.127644 7.929737 45.778950
v -0.162460 2.273975 45.752178
v -0.162460 7.929737 45.752178
v -0.191033 2.273975 45.719555
v -0.191033 7.929737 45.719555
v -0.212265 2.273975 45.682335
v -0.212265 7.929737 45.682335
v -0.225339 2.273975 45.641949
v -0.225339 7.929737 45.641949
v -0.229754 2.273975 45.599949
v -0.229754 7.929737 45.599949
v -0.225339 2.273975 45.557949
v -0.225339 7.929737 45.557949
v -0.212265 2.273975 45.517563
v -0.212265 7.929737 45.517563
v -0.191033 2.273975 45.480343
v -0.191033 7.929737 45.480343
v -0.162460 2.273975 45.447720
v -0.162460 7.929737 45.447720
v -0.127644 2.273975 45.420948
v -0.127644 7.929737 45.420948
v -0.087923 2.273975 45.401054
v -0.087923 7.929737 45.401054
v -0.044822 2.273975 45.388802
v -0.044822 7.929737 45.388802
v -0.071412 3.023265 36.298084
v -0.071412 7.783762 36.298084
v -0.026589 3.023265 36.302223
v -0.026589 7.783762 36.302223
v 0.016511 3.023265 36.314472
v 0.016511 7.783762 36.314472
v 0.056232 3.023265 36.334366
v 0.056232 7.783762 36.334366
v 0.091048 3.023265 36.361137
v 0.091048 7.783762 36.361137
v 0.119621 3.023265 36.393764
v 0.119621 7.783762 36.393764
v 0.140853 3.023265 36.430984
v 0.140853 7.783762 36.430984
v 0.153927 3.023265 36.471367
v 0.153927 7.783762 36.471367
v 0.158342 3.023265 36.513367
v 0.158342 7.783762 36.513367
v 0.153927 3.023265 36.555367
v 0.153927 7.783762 36.555367
v 0.140853 3.023265 36.595753
v 0.140853 7.783762 36.595753
v 0.119621 3.023265 36.632973
v 0.119621 7.783762 36.632973
v 0.091048 3.023265 36.665596
v 0.091048 7.783762 36.665596
v 0.056232 3.023265 36.692368
v 0.056232 7.783762 36.692368
v 0.016511 3.023265 36.712265
v 0.016511 7.783762 36.712265
v -0.026589 3.023265 36.724514
v -0.026589 7.783762 36.724514
v -0.071412 3.023265 36.728653
v -0.071412 7.783762 36.728653
v -0.116235 3.023265 36.724514
v -0.116235 7.783762 36.724514
v -0.159335 3.023265 36.712265
v -0.159335 7.783762 36.712265
v -0.199056 3.023265 36.692368
v -0.199056 7.783762 36.692368
v -0.233872 3.023265 36.665596
v -0.233872 7.783762 36.665596
v -0.262445 3.023265 36.632973
v -0.262445 7.783762 36.632973
v -0.283677 3.023265 36.595753
v -0.283677 7.783762 36.595753
v -0.296751 3.023265 36.555367
v -0.296751 7.783762 36.555367
v -0.301166 3.023265 36.513367
v -0.301166 7.783762 36.513367
v -0.296751 3.023265 36.471367
v -0.296751 7.783762 36.471367
v -0.283677 3.023265 36.430984
v -0.283677 7.783762 36.430984
v -0.262445 3.023265 36.393761
v -0.262445 7.783762 36.393761
v -0.233872 3.023265 36.361137
v -0.233872 7.783762 36.361137
v -0.199056 3.023265 36.334366
v -0.199056 7.783762 36.334366
v -0.159335 3.023265 36.314472
v -0.159335 7.783762 36.314472
v -0.116234 3.023265 36.302223
v -0.116234 7.783762 36.302223
vt 1.000000 0.500000
vt 1.000000 1.000000
vt 0.968750 1.000000
vt 0.968750 0.500000
vt 0.937500 1.000000
vt 0.937500 0.500000
vt 0.906250 1.000000
vt 0.906250 0.500000
vt 0.875000 1.000000
vt 0.875000 0.500000
vt 0.843750 1.000000
vt 0.843750 0.500000
vt 0.812500 1.000000
vt 0.812500 0.500000
vt 0.781250 1.000000
vt 0.781250 0.500000
vt 0.750000 1.000000
vt 0.750000 0.500000
vt 0.718750 1.000000
vt 0.718750 0.500000
vt 0.687500 1.000000
vt 0.687500 0.500000
vt 0.656250 1.000000
vt 0.656250 0.500000
vt 0.625000 1.000000
vt 0.625000 0.500000
vt 0.593750 1.000000
vt 0.593750 0.500000
vt 0.562500 1.000000
vt 0.562500 0.500000
vt 0.531250 1.000000
vt 0.531250 0.500000
vt 0.500000 1.000000
vt 0.500000 0.500000
vt 0.468750 1.000000
vt 0.468750 0.500000
vt 0.437500 1.000000
vt 0.437500 0.500000
vt 0.406250 1.000000
vt 0.406250 0.500000
vt 0.375000 1.000000
vt 0.375000 0.500000
vt 0.343750 1.000000
vt 0.343750 0.500000
vt 0.312500 1.000000
vt 0.312500 0.500000
vt 0.281250 1.000000
vt 0.281250 0.500000
vt 0.250000 1.000000
vt 0.250000 0.500000
vt 0.218750 1.000000
vt 0.218750 0.500000
vt 0.187500 1.000000
vt 0.187500 0.500000
vt 0.156250 1.000000
vt 0.156250 0.500000
vt 0.125000 1.000000
vt 0.125000 0.500000
vt 0.093750 1.000000
vt 0.093750 0.500000
vt 0.062500 1.000000
vt 0.062500 0.500000
vt 0.296822 0.485388
vt 0.250000 0.490000
vt 0.203179 0.485389
vt 0.158156 0.471731
vt 0.116663 0.449553
vt 0.080295 0.419706
vt 0.050447 0.383337
vt 0.028269 0.341844
vt 0.014612 0.296822
vt 0.010000 0.250000
vt 0.014611 0.203179
vt 0.028269 0.158156
vt 0.050447 0.116663
vt 0.080294 0.080294
vt 0.116663 0.050447
vt 0.158156 0.028269
vt 0.203178 0.014612
vt 0.250000 0.010000
vt 0.296822 0.014612
vt 0.341844 0.028269
vt 0.383337 0.050447
vt 0.419706 0.080294
vt 0.449553 0.116663
vt 0.471731 0.158156
vt 0.485388 0.203178
vt 0.490000 0.250000
vt 0.485388 0.296822
vt 0.471731 0.341844
vt 0.449553 0.383337
vt 0.419706 0.419706
vt 0.383337 0.449553
vt 0.341844 0.471731
vt 0.031250 1.000000
vt 0.031250 0.500000
vt 0.000000 1.000000
vt 0.000000 0.500000
vt 0.750000 0.490000
vt 0.796822 0.485388
vt 0.841844 0.471731
vt 0.883337 0.449553
vt 0.919706 0.419706
vt 0.949553 0.383337
vt 0.971731 0.341844
vt 0.985388 0.296822
vt 0.990000 0.250000
vt 0.985388 0.203178
vt 0.971731 0.158156
vt 0.949553 0.116663
vt 0.919706 0.080294
vt 0.883337 0.050447
vt 0.841844 0.028269
vt 0.796822 0.014612
vt 0.750000 0.010000
vt 0.703178 0.014612
vt 0.658156 0.028269
vt 0.616663 0.050447
vt 0.580294 0.080294
vt 0.550447 0.116663
vt 0.528269 0.158156
vt 0.514611 0.203179
vt 0.510000 0.250000
vt 0.514612 0.296822
vt 0.528269 0.341844
vt 0.550447 0.383337
vt 0.580295 0.419706
vt 0.616663 0.449553
vt 0.658156 0.471731
vt 0.703179 0.485389
vt 1.000000 0.500000
vt 1.000000 1.000000
vt 0.968750 1.000000
vt 0.968750 0.500000
vt 0.937500 1.000000
vt 0.937500 0.500000
vt 0.906250 1.000000
vt 0.906250 0.500000
vt 0.875000 1.000000
vt 0.875000 0.500000
vt 0.843750 1.000000
vt 0.843750 0.500000
vt 0.812500 1.000000
vt 0.812500 0.500000
vt 0.781250 1.000000
vt 0.781250 0.500000
vt 0.750000 1.000000
vt 0.750000 0.500000
vt 0.718750 1.000000
vt 0.718750 0.500000
vt 0.687500 1.000000
vt 0.687500 0.500000
vt 0.656250 1.000000
vt 0.656250 0.500000
vt 0.625000 1.000000
vt 0.625000 0.500000
vt 0.593750 1.000000
vt 0.593750 0.500000
vt 0.562500 1.000000
vt 0.562500 0.500000
vt 0.531250 1.000000
vt 0.531250 0.500000
vt 0.500000 1.000000
vt 0.500000 0.500000
vt 0.468750 1.000000
vt 0.468750 0.500000
vt 0.437500 1.000000
vt 0.437500 0.500000
vt 0.406250 1.000000
vt 0.406250 0.500000
vt 0.375000 1.000000
vt 0.375000 0.500000
vt 0.343750 1.000000
vt 0.343750 0.500000
vt 0.312500 1.000000
vt 0.312500 0.500000
vt 0.281250 1.000000
vt 0.281250 0.500000
vt 0.250000 1.000000
vt 0.250000 0.500000
vt 0.218750 1.000000
vt 0.218750 0.500000
vt 0.187500 1.000000
vt 0.187500 0.500000
vt 0.156250 1.000000
vt 0.156250 0.500000
vt 0.125000 1.000000
vt 0.125000 0.500000
vt 0.093750 1.000000
vt 0.093750 0.500000
vt 0.062500 1.000000
vt 0.062500 0.500000
vt 0.296822 0.485388
vt 0.250000 0.490000
vt 0.203179 0.485389
vt 0.158156 0.471731
vt 0.116663 0.449553
vt 0.080295 0.419706
vt 0.050447 0.383337
vt 0.028269 0.341844
vt 0.014612 0.296822
vt 0.010000 0.250000
vt 0.014611 0.203179
vt 0.028269 0.158156
vt 0.050447 0.116663
vt 0.080294 0.080294
vt 0.116663 0.050447
vt 0.158156 0.028269
vt 0.203178 0.014612
vt 0.250000 0.010000
vt 0.296822 0.014612
vt 0.341844 0.028269
vt 0.383337 0.050447
vt 0.419706 0.080294
vt 0.449553 0.116663
vt 0.471731 0.158156
vt 0.485388 0.203178
vt 0.490000 0.250000
vt 0.485388 0.296822
vt 0.471731 0.341844
vt 0.449553 0.383337
vt 0.419706 0.419706
vt 0.383337 0.449553
vt 0.341844 0.471731
vt 0.031250 1.000000
vt 0.031250 0.500000
vt 0.000000 1.000000
vt 0.000000 0.500000
vt 0.750000 0.490000
vt 0.796822 0.485388
vt 0.841844 0.471731
vt 0.883337 0.449553
vt 0.919706 0.419706
vt 0.949553 0.383337
vt 0.971731 0.341844
vt 0.985388 0.296822
vt 0.990000 0.250000
vt 0.985388 0.203178
vt 0.971731 0.158156
vt 0.949553 0.116663
vt 0.919706 0.080294
vt 0.883337 0.050447
vt 0.841844 0.028269
vt 0.796822 0.014612
vt 0.750000 0.010000
vt 0.703178 0.014612
vt 0.658156 0.028269
vt 0.616663 0.050447
vt 0.580294 0.080294
vt 0.550447 0.116663
vt 0.528269 0.158156
vt 0.514611 0.203179
vt 0.510000 0.250000
vt 0.514612 0.296822
vt 0.528269 0.341844
vt 0.550447 0.383337
vt 0.580295 0.419706
vt 0.616663 0.449553
vt 0.658156 0.471731
vt 0.703179 0.485389
vn 0.0918 0.0000 -0.9958
vn 0.2735 0.0000 -0.9619
vn 0.4478 0.0000 -0.8941
vn 0.6095 0.0000 -0.7928
vn 0.7523 0.0000 -0.6589
vn 0.8686 0.0000 -0.4955
vn 0.9514 0.0000 -0.3080
vn 0.9945 0.0000 -0.1045
vn 0.9945 0.0000 0.1045
vn 0.9514 0.0000 0.3080
vn 0.8686 0.0000 0.4955
vn 0.7523 0.0000 0.6589
vn 0.6096 0.0000 0.7927
vn 0.4477 0.0000 0.8942
vn 0.2735 0.0000 0.9619
vn 0.0919 0.0000 0.9958
vn -0.0919 0.0000 0.9958
vn -0.2735 0.0000 0.9619
vn -0.4477 0.0000 0.8942
vn -0.6096 0.0000 0.7927
vn -0.7523 0.0000 0.6589
vn -0.8686 0.0000 0.4955
vn -0.9514 0.0000 0.3080
vn -0.9945 0.0000 0.1045
vn -0.9945 0.0000 -0.1045
vn -0.9514 0.0000 -0.3080
vn -0.8686 0.0000 -0.4955
vn -0.7523 0.0000 -0.6589
vn -0.6095 0.0000 -0.7928
vn -0.4478 0.0000 -0.8941
vn 0.0000 1.0000 -0.0000
vn -0.2735 0.0000 -0.9619
vn -0.0918 0.0000 -0.9958
vn 0.0000 -1.0000 -0.0000
vn 0.0920 0.0000 -0.9958
vn 0.2733 0.0000 -0.9619
vn 0.6096 0.0000 -0.7927
vn 0.7523 0.0000 -0.6588
vn 0.4479 0.0000 0.8941
vn 0.2733 0.0000 0.9619
vn 0.0920 0.0000 0.9958
vn -0.0920 0.0000 0.9958
vn -0.2733 0.0000 0.9619
vn -0.4479 0.0000 0.8941
vn -0.6096 0.0000 -0.7927
vn -0.2733 0.0000 -0.9619
vn -0.0920 0.0000 -0.9958
usemtl Material.006
s off
f 1/1/1 2/2/1 4/3/1 3/4/1
f 3/4/2 4/3/2 6/5/2 5/6/2
f 5/6/3 6/5/3 8/7/3 7/8/3
f 7/8/4 8/7/4 10/9/4 9/10/4
f 9/10/5 10/9/5 12/11/5 11/12/5
f 11/12/6 12/11/6 14/13/6 13/14/6
f 13/14/7 14/13/7 16/15/7 15/16/7
f 15/16/8 16/15/8 18/17/8 17/18/8
f 17/18/9 18/17/9 20/19/9 19/20/9
f 19/20/10 20/19/10 22/21/10 21/22/10
f 21/22/11 22/21/11 24/23/11 23/24/11
f 23/24/12 24/23/12 26/25/12 25/26/12
f 25/26/13 26/25/13 28/27/13 27/28/13
f 27/28/14 28/27/14 30/29/14 29/30/14
f 29/30/15 30/29/15 32/31/15 31/32/15
f 31/32/16 32/31/16 34/33/16 33/34/16
f 33/34/17 34/33/17 36/35/17 35/36/17
f 35/36/18 36/35/18 38/37/18 37/38/18
f 37/38/19 38/37/19 40/39/19 39/40/19
f 39/40/20 40/39/20 42/41/20 41/42/20
f 41/42/21 42/41/21 44/43/21 43/44/21
f 43/44/22 44/43/22 46/45/22 45/46/22
f 45/46/23 46/45/23 48/47/23 47/48/23
f 47/48/24 48/47/24 50/49/24 49/50/24
f 49/50/25 50/49/25 52/51/25 51/52/25
f 51/52/26 52/51/26 54/53/26 53/54/26
f 53/54/27 54/53/27 56/55/27 55/56/27
f 55/56/28 56/55/28 58/57/28 57/58/28
f 57/58/29 58/57/29 60/59/29 59/60/29
f 59/60/30 60/59/30 62/61/30 61/62/30
f 4/63/31 2/64/31 64/65/31 62/66/31 60/67/31 58/68/31 56/69/31 54/70/31 52/71/31 50/72/31 48/73/31 46/74/31 44/75/31 42/76/31 40/77/31 38/78/31 36/79/31 34/80/31 32/81/31 30/82/31 28/83/31 26/84/31 24/85/31 22/86/31 20/87/31 18/88/31 16/89/31 14/90/31 12/91/31 10/92/31 8/93/31 6/94/31
f 61/62/32 62/61/32 64/95/32 63/96/32
f 63/96/33 64/95/33 2/97/33 1/98/33
f 1/99/34 3/100/34 5/101/34 7/102/34 9/103/34 11/104/34 13/105/34 15/106/34 17/107/34 19/108/34 21/109/34 23/110/34 25/111/34 27/112/34 29/113/34 31/114/34 33/115/34 35/116/34 37/117/34 39/118/34 41/119/34 43/120/34 45/121/34 47/122/34 49/123/34 51/124/34 53/125/34 55/126/34 57/127/34 59/128/34 61/129/34 63/130/34
f 65/131/35 66/132/35 68/133/35 67/134/35
f 67/134/36 68/133/36 70/135/36 69/136/36
f 69/136/3 70/135/3 72/137/3 71/138/3
f 71/138/37 72/137/37 74/139/37 73/140/37
f 73/140/38 74/139/38 76/141/38 75/142/38
f 75/142/6 76/141/6 78/143/6 77/144/6
f 77/144/7 78/143/7 80/145/7 79/146/7
f 79/146/8 80/145/8 82/147/8 81/148/8
f 81/148/9 82/147/9 84/149/9 83/150/9
f 83/150/10 84/149/10 86/151/10 85/152/10
f 85/152/11 86/151/11 88/153/11 87/154/11
f 87/154/12 88/153/12 90/155/12 89/156/12
f 89/156/13 90/155/13 92/157/13 91/158/13
f 91/158/39 92/157/39 94/159/39 93/160/39
f 93/160/40 94/159/40 96/161/40 95/162/40
f 95/162/41 96/161/41 98/163/41 97/164/41
f 97/164/42 98/163/42 100/165/42 99/166/42
f 99/166/43 100/165/43 102/167/43 101/168/43
f 101/168/44 102/167/44 104/169/44 103/170/44
f 103/170/20 104/169/20 106/171/20 105/172/20
f 105/172/21 106/171/21 108/173/21 107/174/21
f 107/174/22 108/173/22 110/175/22 109/176/22
f 109/176/23 110/175/23 112/177/23 111/178/23
f 111/178/24 112/177/24 114/179/24 113/180/24
f 113/180/25 114/179/25 116/181/25 115/182/25
f 115/182/26 116/181/26 118/183/26 117/184/26
f 117/184/27 118/183/27 120/185/27 119/186/27
f 119/186/28 120/185/28 122/187/28 121/188/28
f 121/188/45 122/187/45 124/189/45 123/190/45
f 123/190/30 124/189/30 126/191/30 125/192/30
f 68/193/31 66/194/31 128/195/31 126/196/31 124/197/31 122/198/31 120/199/31 118/200/31 116/201/31 114/202/31 112/203/31 110/204/31 108/205/31 106/206/31 104/207/31 102/208/31 100/209/31 98/210/31 96/211/31 94/212/31 92/213/31 90/214/31 88/215/31 86/216/31 84/217/31 82/218/31 80/219/31 78/220/31 76/221/31 74/222/31 72/223/31 70/224/31
f 125/192/46 126/191/46 128/225/46 127/226/46
f 127/226/47 128/225/47 66/227/47 65/228/47
f 65/229/34 67/230/34 69/231/34 71/232/34 73/233/34 75/234/34 77/235/34 79/236/34 81/237/34 83/238/34 85/239/34 87/240/34 89/241/34 91/242/34 93/243/34 95/244/34 97/245/34 99/246/34 101/247/34 103/248/34 105/249/34 107/250/34 109/251/34 111/252/34 113/253/34 115/254/34 117/255/34 119/256/34 121/257/34 123/258/34 125/259/34 127/260/34
